<svg data-name="Brand Link" xmlns="http://www.w3.org/2000/svg" width="162.575" height="81.773" viewBox="0 0 162.575 81.773"><path data-name="Path 1" d="M23.722 81.64a2.949 2.949 0 0 1-1.655-.477l-.111-1.146a2.885 2.885 0 0 0 1.819.668 1.061 1.061 0 0 0 1.172-1.061c0-.658-.339-1.024-1.1-1.294a2.179 2.179 0 0 1-1.745-2.121 1.888 1.888 0 0 1 2.028-1.957 2.365 2.365 0 0 1 1.4.414l-.2.918a2.217 2.217 0 0 0-1.246-.419.965.965 0 0 0-1.061.955c0 .53.345.838 1.018 1.087 1.114.419 1.872 1 1.872 2.28a2 2 0 0 1-2.191 2.153z" fill="#fff"/><path data-name="Path 2" d="M29.614 81.72a2.519 2.519 0 0 1-2.652-2.689v-4.693h.986v4.577a1.607 1.607 0 0 0 1.676 1.83c1.146 0 1.665-.753 1.665-1.83v-4.577h.96v4.683a2.524 2.524 0 0 1-2.636 2.7z" fill="#fff"/><path data-name="Path 3" d="M35.119 81.641a2.928 2.928 0 0 1-1.649-.477l-.117-1.146a2.885 2.885 0 0 0 1.819.668 1.061 1.061 0 0 0 1.172-1.061c0-.658-.334-1.024-1.1-1.294a2.179 2.179 0 0 1-1.75-2.121 1.888 1.888 0 0 1 2.037-1.962 2.344 2.344 0 0 1 1.4.414l-.191.918a2.232 2.232 0 0 0-1.246-.419.97.97 0 0 0-1.061.955c0 .53.35.838 1.024 1.087 1.114.419 1.867 1 1.867 2.28a2 2 0 0 1-2.205 2.158z" fill="#fff"/><path data-name="Path 4" d="M40.582 75.308v6.3h-.986v-6.3h-2.122v-.944h5.176v.944z" fill="#fff"/><path data-name="Path 5" d="M47.025 81.582l-.705-1.872h-2.53l-.705 1.872h-.971l2.779-7.335h.355l2.779 7.345zm-1.681-4.518a8.024 8.024 0 0 1-.276-.886 8.029 8.029 0 0 1-.276.886l-.647 1.771h1.859z" fill="#fff"/><path data-name="Path 6" d="M48.95 81.582v-7.244h.986v7.244z" fill="#fff"/><path data-name="Path 7" d="M56.863 81.742l-3.055-3.712a47.214 47.214 0 0 1-1.5-1.909v5.447h-.992v-7.23H52l2.8 3.41c.377.461.97 1.188 1.368 1.734v-5.134h.992v7.425z" fill="#fff"/><path data-name="Path 8" d="M62.888 81.582l-.705-1.872h-2.526l-.705 1.872h-.971l2.776-7.335h.355l2.779 7.345zm-1.681-4.518a8.019 8.019 0 0 1-.276-.886 8.031 8.031 0 0 1-.276.886l-.642 1.771h1.856z" fill="#fff"/><path data-name="Path 9" d="M66.822 81.582h-2.121v-7.244h1.819a1.808 1.808 0 0 1 1.83 1.9 1.432 1.432 0 0 1-.6 1.273 1.967 1.967 0 0 1 1.2 1.872 2.09 2.09 0 0 1-2.127 2.2zm-.461-6.332h-.711v1.952h.711a.976.976 0 0 0 0-1.952zm.255 2.837h-.965v2.588h.965a1.294 1.294 0 1 0 0-2.588z" fill="#fff"/><path data-name="Path 10" d="M70.005 81.582v-7.244h.992v6.3h2.869v.944z" fill="#fff"/><path data-name="Path 11" d="M74.507 81.582v-7.244h3.51v.971h-2.524v2.19h2.124v.944h-2.121v2.225h2.88v.944z" fill="#fff"/><path data-name="Path 12" d="M82.33 75.309v2.19h2.206v.944H82.33v3.182h-.992v-7.287h3.606v.971z" fill="#fff"/><path data-name="Path 13" d="M88.806 81.72a3.78 3.78 0 1 1 3.447-3.771 3.56 3.56 0 0 1-3.447 3.771zm0-6.55a2.834 2.834 0 1 0 2.45 2.8 2.58 2.58 0 0 0-2.45-2.8z" fill="#fff"/><path data-name="Path 14" d="M96.474 81.72a3.563 3.563 0 0 1-3.452-3.771 3.463 3.463 0 1 1 6.894 0 3.549 3.549 0 0 1-3.442 3.771zm0-6.55a2.834 2.834 0 1 0 2.45 2.8 2.584 2.584 0 0 0-2.45-2.799z" fill="#fff"/><path data-name="Path 15" d="M102.949 81.582h-2v-7.244h2a3.622 3.622 0 0 1 0 7.244zm-.175-6.274h-.827v5.36h.827a2.694 2.694 0 0 0 0-5.383z" fill="#fff"/><path data-name="Path 16" d="M109.78 81.582v-7.244h3.511v.971h-2.5v2.19h2.121v.944h-2.121v2.225h2.874v.944z" fill="#fff"/><path data-name="Path 17" d="M119.857 81.742l-3.055-3.712a47.214 47.214 0 0 1-1.5-1.909v5.447h-.992v-7.23h.684l2.795 3.41c.382.461.971 1.188 1.368 1.734v-5.134h.992v7.425z" fill="#fff"/><path data-name="Path 18" d="M123.919 75.308v6.3h-.992v-6.3h-2.09v-.944h5.176v.944z" fill="#fff"/><path data-name="Path 19" d="M126.677 81.582v-7.244h3.516v.971h-2.524v2.19h2.121v.944h-2.121v2.225h2.88v.944z" fill="#fff"/><path data-name="Path 20" d="M134.992 81.582L132.94 78.4h-.748v3.182h-.981v-7.244h1.962a2.058 2.058 0 0 1 .817 3.9l2.227 3.346zm-1.994-6.274h-.806v2.206h.806a1.103 1.103 0 1 0 0-2.206z" fill="#fff"/><path data-name="Path 21" d="M138.557 78.406h-1.061v3.182h-.981v-7.25h2.063a2.037 2.037 0 0 1 0 4.068zm-.175-3.113h-.907v2.206h.907a1.103 1.103 0 0 0 0-2.206z" fill="#fff"/><path data-name="Path 22" d="M145.265 81.582l-2.052-3.182h-.742v3.182h-.981v-7.244h1.962a2.058 2.058 0 0 1 .817 3.9l2.222 3.346zm-1.989-6.274h-.806v2.206h.806a1.103 1.103 0 1 0 0-2.206z" fill="#fff"/><path data-name="Path 23" d="M146.872 81.582v-7.244h.992v7.244z" fill="#fff"/><path data-name="Path 24" d="M150.812 81.638a2.948 2.948 0 0 1-1.655-.477l-.111-1.146a2.885 2.885 0 0 0 1.819.668 1.061 1.061 0 0 0 1.172-1.061c0-.658-.334-1.024-1.1-1.294a2.179 2.179 0 0 1-1.745-2.121 1.888 1.888 0 0 1 2.031-1.946 2.344 2.344 0 0 1 1.4.414l-.2.917a2.2 2.2 0 0 0-1.246-.419.965.965 0 0 0-1.061.955c0 .53.345.838 1.024 1.087 1.108.419 1.867 1 1.867 2.28a1.986 1.986 0 0 1-2.195 2.143z" fill="#fff"/><path data-name="Path 25" d="M154.053 81.582v-7.244h3.511v.971h-2.524v2.19h2.121v.944h-2.121v2.225h2.88v.944z" fill="#fff"/><path data-name="Path 26" d="M160.104 81.638a2.917 2.917 0 0 1-1.649-.477l-.117-1.146a2.885 2.885 0 0 0 1.819.668 1.061 1.061 0 0 0 1.172-1.061c0-.658-.334-1.024-1.1-1.294a2.179 2.179 0 0 1-1.745-2.121 1.888 1.888 0 0 1 2.031-1.946 2.344 2.344 0 0 1 1.4.414l-.191.917a2.233 2.233 0 0 0-1.246-.419.97.97 0 0 0-1.061.955c0 .53.35.838 1.024 1.087 1.114.419 1.867 1 1.867 2.28a1.99 1.99 0 0 1-2.204 2.143z" fill="#fff"/><path data-name="Path 27" d="M65.083 51.613C49.523 59.255 45.8 55.426 45.8 55.426a11.492 11.492 0 0 0 2.774-3.071A7.075 7.075 0 0 0 49.321 49a5.3 5.3 0 0 0-.931-3.179 9.243 9.243 0 0 0-2.652-2.376 21.574 21.574 0 0 0-4.285-1.952q-2.563-.893-5.83-1.914a55.272 55.272 0 0 1-6.194-2.418 20.683 20.683 0 0 1-5.4-3.58 16.557 16.557 0 0 1-3.818-5.3 17.941 17.941 0 0 1-1.443-7.594 18.722 18.722 0 0 1 2.233-9.414 19.506 19.506 0 0 1 5.871-6.428 25.191 25.191 0 0 1 8.2-3.675A36.981 36.981 0 0 1 44.29 0a34.345 34.345 0 0 1 11.4 2.047A29.524 29.524 0 0 1 65.884 8.1L55.728 18.816a14.367 14.367 0 0 0-5.346-4.142 15.025 15.025 0 0 0-6.364-1.538 19.093 19.093 0 0 0-3.214.276 8.433 8.433 0 0 0-2.933 1.061 7.287 7.287 0 0 0-2.19 2.052 5.463 5.463 0 0 0-.886 3.214 5.176 5.176 0 0 0 .7 2.795 6.268 6.268 0 0 0 2.047 1.957 18.562 18.562 0 0 0 3.214 1.538q1.862.689 4.195 1.443c2.233.742 4.561 1.591 6.985 2.466a26.172 26.172 0 0 1 6.613 3.59 18.79 18.79 0 0 1 4.941 5.542 15.96 15.96 0 0 1 1.957 8.241 15.158 15.158 0 0 1-.292 4.073z" fill="#fff"/><path data-name="Path 28" d="M87.618 15.279v13.6h15.693v13.137H87.618v25.618H71.872V1.676h43.414v13.6z" fill="#fff"/><path data-name="Path 29" d="M119.4 67.634V1.676h41.5v13.418h-26.13v12.484h16.1v12.76h-16.1v13.693h27.806v13.6z" fill="#fff"/><path data-name="Path 30" d="M0 38.832s11.137-14.112 24.735 2.117C37.59 56.322 42.671 65.763 64.2 55.013c0 0-17.66 18.774-33.411 1.225C18.562 42.576 13.195 32.277 0 38.832z" fill="#f9b122"/><path data-name="Path 31" d="M17.65 45.423c13.057 15.178 19.725 27.355 41.616 16.329 0 0-17.411 18.631-33.348 1.273C12.591 48.51 8.926 41.334.255 41.032c0 0 8.52-5.929 17.395 4.391z" fill="#e94e1b"/><path data-name="Path 80" d="M96.528 81.72a3.78 3.78 0 1 1 3.447-3.771 3.56 3.56 0 0 1-3.447 3.771zm0-6.55a2.834 2.834 0 1 0 2.45 2.8 2.58 2.58 0 0 0-2.45-2.8z" fill="#fff"/></svg>